<svg id="Layer_1" data-name="Layer 1" xmlns="http://www.w3.org/2000/svg" viewBox="0 0 494.747 380.304"><defs><style>.cls-1{fill:#fff;}.cls-2{fill:#ba0c2f;}</style></defs><title>RGB-GEORGIA-V-CW</title><path class="cls-1" d="M320.042,0V164.54c0,31.388-39.264,53.473-77.251,59.914-37.988-6.442-77.251-28.527-77.251-59.914V0Z"/><path d="M269.367,38.643a40.94,40.94,0,0,0-66.934,22.7h80.211A41.124,41.124,0,0,0,269.367,38.643Z"/><path d="M235.765,69.461H203.894a2.967,2.967,0,0,0-2.54,2.805V137.16a3.966,3.966,0,0,0,2.151,3.536.681.681,0,0,1,.368.6v16.712l5.023-4.764h26.927V141.3a.68.68,0,0,1,.367-.6,3.968,3.968,0,0,0,2.142-3.532V72.393A2.967,2.967,0,0,0,235.765,69.461Z"/><path d="M281.144,69.461H249.273a2.967,2.967,0,0,0-2.54,2.805V137.16a3.966,3.966,0,0,0,2.151,3.536.682.682,0,0,1,.368.6v16.712l5.023-4.764H281.2V141.3a.68.68,0,0,1,.366-.6,3.967,3.967,0,0,0,2.143-3.532V72.393A2.967,2.967,0,0,0,281.144,69.461Z"/><path class="cls-2" d="M193.933,198.148c12.753,8.975,30.5,15.953,48.857,19.227,18.354-3.274,36.1-10.252,48.857-19.227,9.772-6.877,21.42-18.29,21.42-33.609v-3.722H294.633v13.214a.68.68,0,0,1-.68.68H281.884a.68.68,0,0,1-.68-.68V160.818h-31.95v13.214a.68.68,0,0,1-.68.68H236.5a.68.68,0,0,1-.68-.68V160.818h-31.95v13.214a.68.68,0,0,1-.68.68H191.125a.68.68,0,0,1-.68-.68V160.818H172.513v3.722C172.513,179.858,184.162,191.272,193.933,198.148Z"/><path d="M190.445,141.3a.68.68,0,0,1,.367-.6,3.968,3.968,0,0,0,2.143-3.532V72.393a2.972,2.972,0,0,0-2.547-2.929.679.679,0,0,1-.586-.673V62.023a.68.68,0,0,1,.68-.68h4.879a47.87,47.87,0,0,1,94.316,0h4.878a.68.68,0,0,1,.68.68v6.764a.679.679,0,0,1-.588.673,2.973,2.973,0,0,0-2.554,2.807V137.16a3.965,3.965,0,0,0,2.152,3.536.682.682,0,0,1,.368.6v16.718l5.023-4.764v-.005h13.412V6.974H172.513V153.248h17.932Z"/><path class="cls-1" d="M221.38,198.491V185.549l-6.84.472v.894l.163,0a3.126,3.126,0,0,1,2.217.557,1.9,1.9,0,0,1,.45,1.468v9.553c0,.882-.873,1.079-2.709,1.148v.917h9.452v-.917C222.261,199.57,221.38,199.373,221.38,198.491Z"/><path class="cls-1" d="M229.249,191.076c.434-1.8.908-2.322,3.068-2.322h5.419l-.1.138L229.6,199.945v.828h3.124l3.047-6.119,4.224-7.481v-1.583h-11.46l-.141,5.485Z"/><path class="cls-1" d="M252.2,192.053l.2-.077c1.968-.742,2.967-1.813,2.967-3.183,0-1.728-1.737-3.589-5.548-3.589-3.546,0-5.838,1.836-5.838,4.677a4.234,4.234,0,0,0,2.5,3.673l.157.09-.168.066c-1.954.771-2.945,1.924-2.945,3.426,0,2.435,2.313,3.831,6.346,3.831,3.41,0,5.983-2.022,5.983-4.7,0-1.782-1.13-3.132-3.454-4.127Zm-2.717-5.838c1.757,0,2.892,1.011,2.892,2.578a3.969,3.969,0,0,1-1.135,2.839l-.039.044-.055-.02c-1.974-.723-3.9-1.577-3.9-3.347A2.106,2.106,0,0,1,249.48,186.215Zm.363,13.741a3.176,3.176,0,0,1-3.207-3.134,3.64,3.64,0,0,1,1.063-2.6l.043-.046.057.026a5.46,5.46,0,0,0,.81.285c2.852.942,3.861,1.755,3.861,3.107A2.345,2.345,0,0,1,249.842,199.956Z"/><path class="cls-1" d="M266.5,191.515a8.1,8.1,0,0,0-3.543.718l-.13.059.008-.142.174-3.516h8.249l.229-3.043h-9.883l-.31,7.465.743.59a6.322,6.322,0,0,1,3.3-.926c2.007,0,3.158,1.265,3.158,3.473,0,2.465-1.055,3.714-3.135,3.714a4.532,4.532,0,0,1-2.108-.525l-.111-.084.124-.063a2.142,2.142,0,0,0,1.113-1.832,1.859,1.859,0,0,0-1.92-1.993,1.991,1.991,0,0,0-2.139,2.065c0,2.156,2.219,3.444,5.935,3.444,4.094,0,5.959-2.563,5.959-4.943C272.222,192.688,269.268,191.515,266.5,191.515Z"/><path class="cls-1" d="M188.8,304h-.075c-27.074,0-41.239,19.193-41.239,38.153,0,21.749,17.114,38.152,39.808,38.152,23.46,0,40.487-16.426,40.487-39.056C227.778,320.013,211.021,304,188.8,304Zm20.583,40.335c0,18.131-7.813,29.846-19.9,29.846-13.672,0-23.595-14.292-23.595-33.985,0-17.75,8.5-30.146,20.658-30.146h.076C200.443,310.048,209.38,323.507,209.38,344.334Z"/><path class="cls-1" d="M70.731,348.373V376.2l-2.9.65c-6.822,1.54-15.312,3.455-23.2,3.455C17.518,380.3,0,365.594,0,342.828,0,316.149,23.111,304,44.584,304c9.7,0,23.712,3.854,23.712,3.854v17.4s-6.73-15.19-23.189-15.19c-11.045,0-21.029,7.517-24.843,18.7a40.012,40.012,0,0,0-1.942,12.179c0,23.061,13.779,33.382,27.435,33.382,2.044,0,4.79-.331,6.369-1.265,1.582-.979,2.391-2.894,2.391-5.686v-16.44c0-9.485-6.842-12.288-6.842-12.288H75.686S70.731,339.885,70.731,348.373Z"/><path class="cls-1" d="M373.505,348.373V376.2l-2.9.65c-6.822,1.54-15.312,3.455-23.2,3.455-27.111,0-44.629-14.71-44.629-37.476,0-26.679,23.111-38.829,44.584-38.829,9.7,0,23.712,3.854,23.712,3.854v17.4s-6.73-15.19-23.189-15.19c-11.045,0-21.029,7.517-24.843,18.7a40.012,40.012,0,0,0-1.942,12.179c0,23.061,13.779,33.382,27.435,33.382,2.044,0,4.79-.331,6.369-1.265,1.582-.979,2.391-2.894,2.391-5.686v-16.44c0-9.485-6.842-12.288-6.842-12.288H378.46S373.505,339.885,373.505,348.373Z"/><path class="cls-1" d="M117.3,372.3c-4.79,0-7.393-.148-9.247-1-1.965-.826-2.311-3.4-2.311-8.511V344.763h8.968c8.1,0,13.644.454,15.278,4.391V333.2c-1.546,3.916-6.839,4.61-15.278,4.61h-8.968V315.044c0-3.189,0-3.189,4.016-3.189h10.816c6.632,0,9.887,1.1,12.6,4.44a32.485,32.485,0,0,1,4.458,8.356v-19H83.194c1.714,1.144,6.182,5.209,6.182,16.5l-.016,39.531c0,13.97-6.826,16.884-6.826,16.884h56.428v-20.42a56.209,56.209,0,0,1-6.738,10.219C128.512,372.568,118.712,372.3,117.3,372.3Z"/><path class="cls-1" d="M274.022,326.716c0,5.6-1.652,9.625-5.2,12.681l0,.005c-2.123,1.865-5.7,2.773-10.94,2.773h-2.134V315.946c0-2.081.214-3.086.74-3.561.859-.7,2.494-1.058,4.859-1.058C267.474,311.328,274.022,315.371,274.022,326.716Zm14.415,35.468c-3.215-5.291-8.1-13.2-10.518-17.668C283.1,342.353,291,337.322,291,326.751v-.02c.039-.52.065-1.05.065-1.6a17.9,17.9,0,0,0-7.744-15.225c-4.612-3.1-10.261-4.253-20.845-4.253H233.728c1.714,1.144,6.182,5.209,6.182,16.5l-.016,39.531c0,13.97-6.826,16.884-6.826,16.884h29.507s-6.826-2.914-6.826-16.884V347.849h1.532c3.324,0,5.232,1.157,7.036,4.261,1.121,1.986,2.2,3.974,3.247,5.907,2.059,3.8,4.718,8.861,6.655,11.831,4.579,7,8.986,10.041,23.027,9.59,0,0,2.392-.085,4.219-.241C301.464,379.2,296.652,375.7,288.436,362.184Z"/><path class="cls-1" d="M415.464,378.572s-6.826-2.914-6.826-16.884l-.016-39.531c0-11.293,4.469-15.358,6.182-16.5H386.6c1.714,1.144,6.182,5.209,6.182,16.5l-.016,39.531c0,13.97-6.826,16.884-6.826,16.884Z"/><path class="cls-1" d="M494.747,378.572c-6.248-3.872-7.935-7.57-11.526-16.93-6.066-15.645-14.428-37.912-21.035-55.564l-.158-.424h-7.748l-23.193,56.356c-2.545,6.288-7.094,13.874-12.337,16.561h20.4c-4.372-1.827-3.378-7.553-1.582-12.067.339-.949,1.755-4.443,3.614-8.971H464.3c1.857,5.136,3.265,9.039,3.464,9.61,1.459,4.11,1.33,7.193-2.293,11.428Zm-50.6-28.218c4.407-10.667,9.38-22.6,9.38-22.6s4.3,11.878,8.182,22.6Z"/><path class="cls-1" d="M12.087,275.91V259.893c0-1.468-.478-1.9-4.019-2.037v-2.133H24.483v2.133c-2.344.141-3.732.473-3.732,2.037v16.254c0,5.545,2.536,7.914,7.658,7.914a6.619,6.619,0,0,0,4.88-1.753c1.485-1.469,2.2-3.507,2.2-7.109V265.011c0-4.549-1-6.729-5.551-7.156v-2.133H42.862v2.133c-4.259.521-4.451,2.607-4.451,7.156v10.994c0,7.25-3.973,11.657-12.492,11.657C17.162,287.662,12.087,284.345,12.087,275.91Z"/><path class="cls-1" d="M59.8,264.727h-.288v12.889c0,4.6.573,6.729,5.168,7.156V286.9H51.946v-2.132c4.26-.474,4.787-2.512,4.787-7.156V262.358c0-2.512-.91-4.408-4.787-4.5v-2.133h11.3l16.416,20.424h.288V265.011c0-4.549-1-6.729-5.553-7.156v-2.133H87.171v2.133c-4.26.521-4.451,2.607-4.451,7.156v22.176H77.887Z"/><path class="cls-1" d="M96.456,284.772c3.541-.142,4.117-.569,4.117-2.038V259.893c0-1.468-.575-1.9-4.117-2.037v-2.133h16.9v2.133c-3.543.141-4.117.569-4.117,2.037v22.841c0,1.469.573,1.9,4.117,2.038V286.9h-16.9Z"/><path class="cls-1" d="M126.728,260.936c-.766-1.99-1.627-2.511-4.643-3.08v-2.133h17.757v2.133c-4.163.237-4.738,1.09-4.163,2.7l6.748,19.24h.478l5.648-16.16c1.436-4.123,1.436-5.118-3.063-5.781v-2.133H157.6v2.133c-3.255.663-3.685,1.8-5.217,5.734l-9,23.6h-6.795Z"/><path class="cls-1" d="M164.943,284.772c3.543-.142,4.021-.569,4.021-2.038V259.893c0-1.468-.478-1.9-4.021-2.037v-2.133h27.951l.431,11.184L190.74,267c-1.866-5.355-3.685-9-9.524-9h-3.59v12.037h.717c3.063,0,4.117-.426,5.792-4.644h2.154v11.7h-2.154c-1.675-4.217-2.729-4.786-5.792-4.786h-.717v12.274h3.112c6.987,0,8.9-3.744,11.1-9.809l2.583.1-.478,12.036h-29Z"/><path class="cls-1" d="M218.806,282.734c0,1.564,1.388,1.9,3.732,2.038V286.9H206.122v-2.132c3.541-.142,4.019-.569,4.019-2.038V259.893c0-1.468-.478-1.9-4.019-2.037v-2.133h16.991c9.572,0,12.4,3.649,12.4,7.582,0,3.791-2.154,6.729-9.428,7.82v.141c6.7.048,8.566,2.654,8.948,6.256l.383,3.412c.336,3.174.814,3.649,4.212,3.838V286.9c-1.866.142-3.446.19-4.88.19-6.989,0-8.041-1.8-8.328-5.544l-.288-3.649c-.191-4.549-1.2-5.5-6.126-5.5h-1.2Zm1.914-12.51c4.929,0,5.934-1.564,5.934-6.3,0-3.886-1.339-5.924-6.27-5.924h-1.578v12.226Z"/><path class="cls-1" d="M249.91,276.573H252.5c2.441,5.213,5.743,8.719,9.716,8.719,3.541,0,5.073-2.322,5.073-4.549,0-3.033-1.724-4.264-6.892-5.781-5.314-1.564-10.291-3.933-10.291-9.762,0-6.018,4.4-10.236,11.248-10.236a15.01,15.01,0,0,1,6.558,1.516l1.292-1.705h2.441v9.857h-2.585c-2.3-4.5-4.978-7.3-8.28-7.3a4.051,4.051,0,0,0-4.307,4.17c0,3.033,1.866,4.028,7.322,5.686,4.4,1.327,9.333,3.554,9.333,9.43,0,5.829-3.541,11.041-11.821,11.041a17.661,17.661,0,0,1-7.658-1.516l-1.292,1.706H249.91Z"/><path class="cls-1" d="M283.434,284.772c3.543-.142,4.117-.569,4.117-2.038V259.893c0-1.468-.573-1.9-4.117-2.037v-2.133h16.9v2.133c-3.541.141-4.117.569-4.117,2.037v22.841c0,1.469.575,1.9,4.117,2.038V286.9h-16.9Z"/><path class="cls-1" d="M317.8,284.772c3.973-.1,4.738-.569,4.738-2.038V258h-.383c-3.493,0-5.551,3.365-7.945,9l-2.488-.094.239-11.184h29.817l.241,11.184-2.49.094c-2.346-5.829-4.451-9-7.945-9H331.2v24.737c0,1.469.766,1.943,4.738,2.038V286.9H317.8Z"/><path class="cls-1" d="M375.491,263.21c2.2-3.649,1.914-4.928-1.868-5.355v-2.133h11.631v2.133c-2.871.426-3.829,1.658-5.887,4.881l-6.509,10.188v9.809c0,1.469.575,1.9,4.117,2.038V286.9h-16.9v-2.132c3.543-.142,4.117-.569,4.117-2.038v-8.766l-7.945-13.221c-1.149-1.9-1.914-2.558-4.834-2.89v-2.133h17.23v2.133c-4.068.19-4.019,1.042-2.968,2.938l5.36,9.714Z"/><path class="cls-1" d="M408.322,271.408c0-10,6.365-16.444,16.13-16.444,10,0,16.128,6.256,16.128,16.254,0,10.046-6.365,16.444-16.128,16.444C414.449,287.662,408.322,281.454,408.322,271.408Zm22.973-.094c0-10.141-1.961-13.979-7.036-13.979s-6.653,3.838-6.653,13.979c0,10.188,1.963,13.979,7.036,13.979S431.3,281.5,431.3,271.314Z"/><path class="cls-1" d="M449.385,284.772c3.541-.142,4.019-.569,4.019-2.038V259.893c0-1.468-.478-1.9-4.019-2.037v-2.133h27.951v11.184l-2.585.094c-2.01-5.686-4.212-9-10.05-9h-2.632v12.416h.813c3.063,0,4.117-.332,5.7-4.264h2.154v11.325h-2.154c-1.675-4.217-2.633-4.786-5.7-4.786h-.813v10.046c0,1.564.047,1.991,4.307,2.132V286.9H449.385Z"/><path class="cls-1" d="M308.97,201.922h-1.7v-1.148h4.7v1.148h-1.7v4.551h-1.3Zm4.2-1.148h1.369l1.5,2.406,1.5-2.406h1.332v5.7h-1.221v-3.849l-1.573,2.5h-.111l-1.573-2.5v3.849H313.17Z"/></svg>