<?xml version="1.0" encoding="utf-8"?>
<!-- Generator: Adobe Illustrator 22.0.0, SVG Export Plug-In . SVG Version: 6.00 Build 0)  -->
<svg version="1.1" id="Layer_1" xmlns="http://www.w3.org/2000/svg" xmlns:xlink="http://www.w3.org/1999/xlink" x="0px" y="0px"
	 viewBox="0 0 545 179" preserveAspectRatio="xMinYMid" style="enable-background:new 0 0 545 179;" xml:space="preserve">
<style type="text/css">
	.st0{fill:#FFFFFF;}
	.st1{fill:#BA0C2F;}
</style>
<g>
	<g>
		<g>
			<path class="st0" d="M302,68.5L302,68.5c-21.6,0-32.8,15.2-32.8,30.3c0,17.3,13.6,30.3,31.6,30.3c18.6,0,32.2-13,32.2-31
				C333,81.2,319.7,68.5,302,68.5z M318.4,100.5c0,14.4-6.2,23.7-15.8,23.7c-10.9,0-18.7-11.4-18.7-27c0-14.1,6.7-23.9,16.4-23.9
				h0.1C311.3,73.3,318.4,84,318.4,100.5z"/>
			<path class="st0" d="M208.2,103.7v22.1l-2.3,0.5c-5.4,1.2-12.2,2.7-18.4,2.7c-21.5,0-35.4-11.7-35.4-29.8
				c0-21.2,18.4-30.8,35.4-30.8c7.7,0,18.8,3.1,18.8,3.1v13.8c0,0-5.3-12.1-18.4-12.1c-8.8,0-16.7,6-19.7,14.9
				c-1,3.1-1.5,6.5-1.5,9.7c0,18.3,10.9,26.5,21.8,26.5c1.6,0,3.8-0.3,5.1-1c1.3-0.8,1.9-2.3,1.9-4.5v-13.1c0-7.5-5.4-9.8-5.4-9.8
				h22.2C212.2,96,208.2,97,208.2,103.7z"/>
			<path class="st0" d="M448.7,103.7v22.1l-2.3,0.5c-5.4,1.2-12.2,2.7-18.4,2.7c-21.5,0-35.4-11.7-35.4-29.8
				c0-21.2,18.4-30.8,35.4-30.8c7.7,0,18.8,3.1,18.8,3.1v13.8c0,0-5.3-12.1-18.4-12.1c-8.8,0-16.7,6-19.7,14.9
				c-1,3.1-1.5,6.5-1.5,9.7c0,18.3,10.9,26.5,21.8,26.5c1.6,0,3.8-0.3,5.1-1c1.3-0.8,1.9-2.3,1.9-4.5v-13.1c0-7.5-5.4-9.8-5.4-9.8
				h22.2C452.6,96,448.7,97,448.7,103.7z"/>
			<path class="st0" d="M245.2,122.7c-3.8,0-5.9-0.1-7.3-0.8c-1.6-0.7-1.8-2.7-1.8-6.8v-14.3h7.1c6.4,0,10.8,0.4,12.1,3.5V91.7
				c-1.2,3.1-5.4,3.7-12.1,3.7h-7.1V77.3c0-2.5,0-2.5,3.2-2.5h8.6c5.3,0,7.9,0.9,10,3.5c2.2,2.6,3.5,6.6,3.5,6.6V69.8h-43.2
				c1.4,0.9,4.9,4.1,4.9,13.1l0,31.4c0,11.1-5.4,13.4-5.4,13.4h44.8v-16.2c0,0-2.4,4.8-5.4,8.1C254.1,123,246.4,122.7,245.2,122.7z"
				/>
			<path class="st0" d="M369.7,86.5c0,4.4-1.3,7.6-4.1,10.1l0,0c-1.7,1.5-4.5,2.2-8.7,2.2h-1.7V78c0-1.7,0.2-2.5,0.6-2.8
				c0.7-0.6,2-0.8,3.9-0.8C364.5,74.3,369.7,77.5,369.7,86.5z M381.1,114.7c-2.6-4.2-6.4-10.5-8.4-14c4.1-1.7,10.4-5.7,10.4-14.1v0
				c0-0.4,0.1-0.8,0.1-1.3c0-5.1-2.2-9.4-6.2-12.1c-3.7-2.5-8.1-3.4-16.6-3.4h-22.8c1.4,0.9,4.9,4.1,4.9,13.1l0,31.4
				c0,11.1-5.4,13.4-5.4,13.4h23.4c0,0-5.4-2.3-5.4-13.4v-11h1.2c2.6,0,4.2,0.9,5.6,3.4c0.9,1.6,1.7,3.2,2.6,4.7
				c1.6,3,3.7,7,5.3,9.4c3.6,5.6,7.1,8,18.3,7.6c0,0,1.9-0.1,3.4-0.2C391.5,128.2,387.7,125.4,381.1,114.7z"/>
			<path class="st0" d="M482,127.7c0,0-5.4-2.3-5.4-13.4l0-31.4c0-9,3.5-12.2,4.9-13.1h-22.4c1.4,0.9,4.9,4.1,4.9,13.1l0,31.4
				c0,11.1-5.4,13.4-5.4,13.4H482z"/>
			<path class="st0" d="M545,127.7c-5-3.1-6.3-6-9.2-13.4c-4.8-12.4-11.5-30.1-16.7-44.1l-0.1-0.3h-6.2l-18.4,44.8
				c-2,5-5.6,11-9.8,13.2h16.2c-3.5-1.5-2.7-6-1.3-9.6c0.3-0.8,1.4-3.5,2.9-7.1h18.4c1.5,4.1,2.6,7.2,2.8,7.6
				c1.2,3.3,1.1,5.7-1.8,9.1H545z M504.8,105.3c3.5-8.5,7.4-17.9,7.4-17.9s3.4,9.4,6.5,17.9H504.8z"/>
			<path class="st0" d="M161.7,46.2V33.5c0-1.2-0.4-1.5-3.2-1.6v-1.7h13v1.7c-1.9,0.1-3,0.4-3,1.6v12.9c0,4.4,2,6.3,6.1,6.3
				c1.6,0,2.9-0.5,3.9-1.4c1.2-1.2,1.7-2.8,1.7-5.6v-8.1c0-3.6-0.8-5.3-4.4-5.7v-1.7h10.3v1.7c-3.4,0.4-3.5,2.1-3.5,5.7v8.7
				c0,5.8-3.2,9.3-9.9,9.3C165.7,55.5,161.7,52.9,161.7,46.2z"/>
			<path class="st0" d="M199.6,37.3h-0.2v10.2c0,3.7,0.5,5.3,4.1,5.7v1.7h-10.1v-1.7c3.4-0.4,3.8-2,3.8-5.7V35.4
				c0-2-0.7-3.5-3.8-3.6v-1.7h9l13,16.2h0.2v-8.8c0-3.6-0.8-5.3-4.4-5.7v-1.7h10.1v1.7c-3.4,0.4-3.5,2.1-3.5,5.7v17.6h-3.8
				L199.6,37.3z"/>
			<path class="st0" d="M228.7,53.2c2.8-0.1,3.3-0.5,3.3-1.6V33.5c0-1.2-0.5-1.5-3.3-1.6v-1.7h13.4v1.7c-2.8,0.1-3.3,0.5-3.3,1.6
				v18.1c0,1.2,0.5,1.5,3.3,1.6v1.7h-13.4V53.2z"/>
			<path class="st0" d="M252.7,34.3c-0.6-1.6-1.3-2-3.7-2.4v-1.7h14.1v1.7c-3.3,0.2-3.8,0.9-3.3,2.1l5.4,15.3h0.4l4.5-12.8
				c1.1-3.3,1.1-4.1-2.4-4.6v-1.7h9.6v1.7c-2.6,0.5-2.9,1.4-4.1,4.6l-7.1,18.7h-5.4L252.7,34.3z"/>
			<path class="st0" d="M283.1,53.2c2.8-0.1,3.2-0.5,3.2-1.6V33.5c0-1.2-0.4-1.5-3.2-1.6v-1.7h22.2l0.3,8.9l-2.1,0.1
				c-1.5-4.3-2.9-7.2-7.6-7.2h-2.9v9.6h0.6c2.4,0,3.3-0.3,4.6-3.7h1.7v9.3h-1.7c-1.3-3.3-2.2-3.8-4.6-3.8h-0.6v9.7h2.5
				c5.5,0,7.1-3,8.8-7.8l2.1,0.1l-0.4,9.6h-23V53.2z"/>
			<path class="st0" d="M325.8,51.6c0,1.2,1.1,1.5,3,1.6v1.7h-13v-1.7c2.8-0.1,3.2-0.5,3.2-1.6V33.5c0-1.2-0.4-1.5-3.2-1.6v-1.7
				h13.5c7.6,0,9.8,2.9,9.8,6c0,3-1.7,5.3-7.5,6.2v0.1c5.3,0,6.8,2.1,7.1,5l0.3,2.7c0.3,2.5,0.6,2.9,3.3,3v1.7
				c-1.5,0.1-2.7,0.2-3.9,0.2c-5.6,0-6.4-1.4-6.6-4.4l-0.2-2.9c-0.2-3.6-0.9-4.4-4.9-4.4h-0.9V51.6z M327.4,41.7
				c3.9,0,4.7-1.2,4.7-5c0-3.1-1.1-4.7-5-4.7h-1.3v9.7H327.4z"/>
			<path class="st0" d="M350.6,46.7h2.1c1.9,4.1,4.6,6.9,7.7,6.9c2.8,0,4-1.8,4-3.6c0-2.4-1.4-3.4-5.5-4.6c-4.2-1.2-8.2-3.1-8.2-7.8
				c0-4.8,3.5-8.1,8.9-8.1c1.9,0,4.1,0.6,5.2,1.2l1-1.4h1.9v7.8h-2.1c-1.8-3.6-4-5.8-6.6-5.8c-2.1,0-3.4,1.4-3.4,3.3
				c0,2.4,1.5,3.2,5.8,4.5c3.5,1.1,7.4,2.8,7.4,7.5c0,4.6-2.8,8.8-9.4,8.8c-2.1,0-4.6-0.4-6.1-1.2l-1,1.4h-1.9V46.7z"/>
			<path class="st0" d="M377.2,53.2c2.8-0.1,3.3-0.5,3.3-1.6V33.5c0-1.2-0.5-1.5-3.3-1.6v-1.7h13.4v1.7c-2.8,0.1-3.3,0.5-3.3,1.6
				v18.1c0,1.2,0.5,1.5,3.3,1.6v1.7h-13.4V53.2z"/>
			<path class="st0" d="M404.5,53.2c3.2-0.1,3.8-0.5,3.8-1.6V32h-0.3c-2.8,0-4.4,2.7-6.3,7.2l-2-0.1l0.2-8.9h23.7l0.2,8.9l-2,0.1
				c-1.9-4.6-3.5-7.2-6.3-7.2h-0.3v19.6c0,1.2,0.6,1.5,3.8,1.6v1.7h-14.4V53.2z"/>
			<path class="st0" d="M450.3,36.1c1.7-2.9,1.5-3.9-1.5-4.3v-1.7h9.2v1.7c-2.3,0.3-3,1.3-4.7,3.9l-5.2,8.1v7.8
				c0,1.2,0.5,1.5,3.3,1.6v1.7H438v-1.7c2.8-0.1,3.3-0.5,3.3-1.6v-7L435,34.1c-0.9-1.5-1.5-2-3.8-2.3v-1.7h13.7v1.7
				c-3.2,0.2-3.2,0.8-2.4,2.3l4.3,7.7L450.3,36.1z"/>
			<path class="st0" d="M476.4,42.6c0-7.9,5.1-13.1,12.8-13.1c7.9,0,12.8,5,12.8,12.9c0,8-5.1,13.1-12.8,13.1
				C481.2,55.5,476.4,50.6,476.4,42.6z M494.6,42.5c0-8.1-1.6-11.1-5.6-11.1c-4,0-5.3,3-5.3,11.1c0,8.1,1.6,11.1,5.6,11.1
				C493.4,53.6,494.6,50.6,494.6,42.5z"/>
			<path class="st0" d="M509,53.2c2.8-0.1,3.2-0.5,3.2-1.6V33.5c0-1.2-0.4-1.5-3.2-1.6v-1.7h22.2V39l-2.1,0.1
				c-1.6-4.5-3.3-7.2-8-7.2H519v9.9h0.6c2.4,0,3.3-0.3,4.5-3.4h1.7v9h-1.7c-1.3-3.3-2.1-3.8-4.5-3.8H519v8c0,1.2,0,1.6,3.4,1.7v1.6
				H509V53.2z"/>
		</g>
	</g>
	<g>
		<g>
			<path class="st0" d="M122.7,0v130.7c0,24.9-31.2,42.5-61.4,47.6C31.2,173.1,0,155.6,0,130.7V0L122.7,0z"/>
		</g>
		<path d="M82.5,30.7c-5.9-5.1-13.5-8-21.3-8c-7.8,0-15.4,2.8-21.3,8c-5.4,4.7-9.1,11.1-10.5,18H93C91.6,41.8,87.8,35.4,82.5,30.7z"
			/>
		<path d="M55.8,55.2l-25.3,0c-1.1,0.1-2,1.1-2,2.2l0,51.5c0,1.2,0.7,2.3,1.7,2.8c0.2,0.1,0.3,0.3,0.3,0.5v13.3l4-3.8h21.4v-9.5
			c0-0.2,0.1-0.4,0.3-0.5c1-0.5,1.7-1.6,1.7-2.8V57.5C57.8,56.3,56.9,55.3,55.8,55.2z"/>
		<path d="M91.8,55.2l-25.3,0c-1.1,0.1-2,1.1-2,2.2l0,51.5c0,1.2,0.7,2.3,1.7,2.8c0.2,0.1,0.3,0.3,0.3,0.5v13.3l4-3.8h21.4v-9.5
			c0-0.2,0.1-0.4,0.3-0.5c1.1-0.5,1.7-1.6,1.7-2.8V57.5C93.9,56.3,93,55.3,91.8,55.2z"/>
		<path class="st1" d="M22.6,157.4c10.1,7.1,24.2,12.7,38.8,15.3c14.6-2.6,28.7-8.1,38.8-15.3c7.8-5.5,17-14.5,17-26.7v-3h-14.6
			v10.5c0,0.3-0.2,0.5-0.5,0.5h-9.6c-0.3,0-0.5-0.2-0.5-0.5v-10.5H66.5v10.5c0,0.3-0.2,0.5-0.5,0.5h-9.6c-0.3,0-0.5-0.2-0.5-0.5
			v-10.5H30.4v10.5c0,0.3-0.2,0.5-0.5,0.5h-9.6c-0.3,0-0.5-0.2-0.5-0.5v-10.5H5.5v3C5.5,142.8,14.8,151.9,22.6,157.4z"/>
		<path d="M19.8,112.2c0-0.2,0.1-0.4,0.3-0.5c1-0.5,1.7-1.6,1.7-2.8V57.5c0-1.2-0.9-2.2-2-2.3c-0.3,0-0.5-0.3-0.5-0.5v-5.4
			c0-0.3,0.2-0.5,0.5-0.5h3.9c1.5-8.6,5.9-16.4,12.5-22.2c6.9-6,15.8-9.3,24.9-9.3c9.2,0,18,3.3,24.9,9.3
			c6.6,5.7,11.1,13.6,12.5,22.2h3.9c0.3,0,0.5,0.2,0.5,0.5v5.4c0,0.3-0.2,0.5-0.5,0.5c-1.1,0.2-2,1.1-2,2.2l0,51.5
			c0,1.2,0.7,2.3,1.7,2.8c0.2,0.1,0.3,0.3,0.3,0.5v13.3l4-3.8v0h10.7V5.5H5.5v116.2h14.2V112.2z"/>
		<path class="st0" d="M44.3,157.6v-10.3l-5.4,0.4v0.7c0,0,0.1,0,0.1,0c0.9,0,1.5,0.1,1.8,0.4c0.3,0.2,0.4,0.6,0.4,1.2v7.6
			c0,0.7-0.7,0.9-2.2,0.9v0.7h7.5v-0.7C45,158.5,44.3,158.3,44.3,157.6z"/>
		<path class="st0" d="M50.6,151.8c0.3-1.4,0.7-1.8,2.4-1.8h4.3l-0.1,0.1l-6.4,8.8v0.7h2.5l2.4-4.9l3.4-5.9v-1.3H50l-0.1,4.4H50.6z"
			/>
		<path class="st0" d="M68.8,152.5l0.2-0.1c1.6-0.6,2.4-1.4,2.4-2.5c0-1.4-1.4-2.9-4.4-2.9c-2.8,0-4.6,1.5-4.6,3.7
			c0,1.2,0.7,2.2,2,2.9l0.1,0.1l-0.1,0.1c-1.6,0.6-2.3,1.5-2.3,2.7c0,1.9,1.8,3,5,3c2.7,0,4.8-1.6,4.8-3.7c0-1.4-0.9-2.5-2.7-3.3
			L68.8,152.5z M66.7,147.9c1.4,0,2.3,0.8,2.3,2c0,0.9-0.3,1.5-0.9,2.3l0,0l0,0c-1.6-0.6-3.1-1.3-3.1-2.7
			C64.9,148.5,65.8,147.9,66.7,147.9z M67,158.8c-1.6,0-2.5-1.3-2.5-2.5c0-0.8,0.3-1.4,0.8-2.1l0,0l0,0c0.2,0.1,0.4,0.2,0.6,0.2
			c2.3,0.7,3.1,1.4,3.1,2.5C69,158.1,68.2,158.8,67,158.8z"/>
		<path class="st0" d="M80.2,152.1c-1.1,0-1.9,0.2-2.8,0.6l-0.1,0l0-0.1l0.1-2.8H84l0.2-2.4h-7.8l-0.2,5.9l0.6,0.5
			c0.9-0.5,1.6-0.7,2.6-0.7c1.6,0,2.5,1,2.5,2.8c0,2-0.8,2.9-2.5,2.9c-0.6,0-1.4-0.2-1.7-0.4l-0.1-0.1l0.1-0.1
			c0.4-0.2,0.9-0.8,0.9-1.5c0-0.8-0.5-1.6-1.5-1.6c-1,0-1.7,0.7-1.7,1.6c0,1.7,1.8,2.7,4.7,2.7c3.3,0,4.7-2,4.7-3.9
			C84.7,153,82.4,152.1,80.2,152.1z"/>
		<g>
			<path class="st0" d="M113.9,160.4h-1.4v-0.9h3.7v0.9h-1.4v3.6h-1V160.4z M117.2,159.5h1.1l1.2,1.9l1.2-1.9h1.1v4.5h-1v-3.1
				l-1.2,2h-0.1l-1.2-2v3.1h-1V159.5z"/>
		</g>
	</g>
</g>
</svg>
